<svg xmlns="http://www.w3.org/2000/svg" width="181" height="251" viewBox="0 0 181 251">
  <g id="Group_732" data-name="Group 732" transform="translate(-1527 -209.01)">
    <circle id="Ellipse_41" data-name="Ellipse 41" cx="9" cy="9" r="9" transform="translate(1527 209.011)" fill="#eaeaea"/>
    <circle id="Ellipse_48" data-name="Ellipse 48" cx="9" cy="9" r="9" transform="translate(1527 256.01)" fill="#eaeaea"/>
    <circle id="Ellipse_52" data-name="Ellipse 52" cx="9" cy="9" r="9" transform="translate(1527 302.01)" fill="#eaeaea"/>
    <circle id="Ellipse_56" data-name="Ellipse 56" cx="9" cy="9" r="9" transform="translate(1527 349.01)" fill="#eaeaea"/>
    <circle id="Ellipse_60" data-name="Ellipse 60" cx="9" cy="9" r="9" transform="translate(1527 395.01)" fill="#eaeaea"/>
    <circle id="Ellipse_64" data-name="Ellipse 64" cx="9" cy="9" r="9" transform="translate(1527 442.01)" fill="#eaeaea"/>
    <ellipse id="Ellipse_42" data-name="Ellipse 42" cx="9.5" cy="9" rx="9.5" ry="9" transform="translate(1581 209.011)" fill="#eaeaea"/>
    <ellipse id="Ellipse_47" data-name="Ellipse 47" cx="9.5" cy="9" rx="9.5" ry="9" transform="translate(1581 256.01)" fill="#eaeaea"/>
    <ellipse id="Ellipse_51" data-name="Ellipse 51" cx="9.5" cy="9" rx="9.5" ry="9" transform="translate(1581 302.01)" fill="#eaeaea"/>
    <ellipse id="Ellipse_55" data-name="Ellipse 55" cx="9.5" cy="9" rx="9.5" ry="9" transform="translate(1581 349.01)" fill="#eaeaea"/>
    <ellipse id="Ellipse_59" data-name="Ellipse 59" cx="9.5" cy="9" rx="9.5" ry="9" transform="translate(1581 395.01)" fill="#eaeaea"/>
    <ellipse id="Ellipse_63" data-name="Ellipse 63" cx="9.5" cy="9" rx="9.5" ry="9" transform="translate(1581 442.01)" fill="#eaeaea"/>
    <circle id="Ellipse_43" data-name="Ellipse 43" cx="9" cy="9" r="9" transform="translate(1636 209.011)" fill="#eaeaea"/>
    <circle id="Ellipse_46" data-name="Ellipse 46" cx="9" cy="9" r="9" transform="translate(1636 256.01)" fill="#eaeaea"/>
    <circle id="Ellipse_50" data-name="Ellipse 50" cx="9" cy="9" r="9" transform="translate(1636 302.01)" fill="#eaeaea"/>
    <circle id="Ellipse_54" data-name="Ellipse 54" cx="9" cy="9" r="9" transform="translate(1636 349.01)" fill="#eaeaea"/>
    <circle id="Ellipse_58" data-name="Ellipse 58" cx="9" cy="9" r="9" transform="translate(1636 395.01)" fill="#eaeaea"/>
    <circle id="Ellipse_62" data-name="Ellipse 62" cx="9" cy="9" r="9" transform="translate(1636 442.01)" fill="#eaeaea"/>
    <circle id="Ellipse_44" data-name="Ellipse 44" cx="9" cy="9" r="9" transform="translate(1690 209.011)" fill="#eaeaea"/>
    <circle id="Ellipse_45" data-name="Ellipse 45" cx="9" cy="9" r="9" transform="translate(1690 256.01)" fill="#eaeaea"/>
    <circle id="Ellipse_49" data-name="Ellipse 49" cx="9" cy="9" r="9" transform="translate(1690 302.01)" fill="#eaeaea"/>
    <circle id="Ellipse_53" data-name="Ellipse 53" cx="9" cy="9" r="9" transform="translate(1690 349.01)" fill="#eaeaea"/>
    <circle id="Ellipse_57" data-name="Ellipse 57" cx="9" cy="9" r="9" transform="translate(1690 395.01)" fill="#eaeaea"/>
    <circle id="Ellipse_61" data-name="Ellipse 61" cx="9" cy="9" r="9" transform="translate(1690 442.01)" fill="#eaeaea"/>
  </g>
</svg>
