<svg xmlns="http://www.w3.org/2000/svg" width="111.106" height="111.106" viewBox="0 0 111.106 111.106">
  <g id="Group_730" data-name="Group 730" transform="translate(0 0)">
    <rect id="Rectangle_844" data-name="Rectangle 844" width="83.09" height="83.091" rx="17" transform="matrix(0.899, -0.438, 0.438, 0.899, 0, 36.425)" fill="#e2f0e8"/>
    <path id="Icon_simple-wheniwork" data-name="Icon simple-wheniwork" d="M23.652,47.3A23.652,23.652,0,1,1,47.3,23.652,23.671,23.671,0,0,1,23.652,47.3Zm0-43.335A19.685,19.685,0,1,0,43.337,23.652,19.73,19.73,0,0,0,23.652,3.97Zm11.6,21.973H18.159a1.374,1.374,0,0,1-1.376-1.362V22.586a1.37,1.37,0,0,1,1.376-1.374H35.4a1.37,1.37,0,0,1,1.374,1.374v1.983a1.622,1.622,0,0,1-1.524,1.374Zm-4.427-7.63H13.582a1.368,1.368,0,0,1-1.376-1.362V14.96a1.347,1.347,0,0,1,1.374-1.224H30.823a1.315,1.315,0,0,1,1.222,1.22v1.983a1.346,1.346,0,0,1-1.22,1.374ZM13.582,28.992H30.825A1.367,1.367,0,0,1,32.2,30.366v1.983a1.37,1.37,0,0,1-1.362,1.374H13.582A1.618,1.618,0,0,1,12.208,32.2V30.216a1.345,1.345,0,0,1,1.374-1.224Z" transform="matrix(0.899, -0.438, 0.438, 0.899, 23.925, 44.663)" fill="#00823b"/>
  </g>
</svg>
