<svg id="Group_840" data-name="Group 840" xmlns="http://www.w3.org/2000/svg" xmlns:xlink="http://www.w3.org/1999/xlink" width="51.168" height="33.499" viewBox="0 0 51.168 33.499">
  <defs>
    <clipPath id="clip-path">
      <rect id="Rectangle_947" data-name="Rectangle 947" width="51.168" height="33.499" fill="#00823b"/>
    </clipPath>
  </defs>
  <g id="Group_839" data-name="Group 839" clip-path="url(#clip-path)">
    <path id="Path_113" data-name="Path 113" d="M85,16.69a43.994,43.994,0,0,1-5.5,2.729,8.365,8.365,0,0,0-2.435,1.724,37.266,37.266,0,0,1-11.848,7.865c-2.729,1.2-5.353,2.644-8.016,3.994a4.55,4.55,0,0,1-2.808.495,2.245,2.245,0,0,1-1.86-1.551c-.231-.742-.366-.974-1.216-.6a2.675,2.675,0,0,1-3.828-2.163c-.077-.469-.31-.554-.715-.691-2.094-.709-2.751-2.136-2.022-4.29a.6.6,0,0,0-.08-.67c-1.717-2.337-.65-3.9,1.065-4.95,1.366-.838,3.034-1.052,4.361-2.041.4-.3.982.1,1.194.531.258.528-.1.958-.567,1.194-1.419.717-2.865,1.382-4.283,2.1a1.125,1.125,0,0,0-.136,2.095c.515.347.932.047,1.346-.166,2.373-1.219,4.734-2.458,7.1-3.682a2.326,2.326,0,0,1,1.276-.336c.409.033.891-.08.981.5a.938.938,0,0,1-.566,1.174c-2.332,1.095-4.584,2.354-6.961,3.359-.845.358-1.623.877-2.473,1.22a1.069,1.069,0,0,0-.547,1.659c.33.657.934.654,1.622.253,3.36-1.957,7.042-3.251,10.482-5.047.45-.235.96-.3,1.139.222a1.023,1.023,0,0,1-.475,1.415c-3.081,1.508-6.124,3.1-9.233,4.542a1.048,1.048,0,0,0-.622,1.5c.207.566.712.673,1.4.434,3.067-1.07,5.767-2.868,8.68-4.239.263-.124.515-.274.785-.381.585-.231,1.212-.293,1.506.367s-.057,1.1-.706,1.4c-2,.92-3.974,1.883-5.962,2.821-.747.353-1.357.856-.891,1.72.44.815,1.185.565,1.861.2,2.33-1.24,4.9-1.991,7.152-3.373,2.689-1.648,5.72-2.651,8.294-4.51a45.349,45.349,0,0,0,4.817-4.155c.357-.343.171-.582.03-.871q-2.322-4.764-4.651-9.525c-.631-1.286-1.3-2.552-1.928-3.841-.538-1.109-.315-1.708.763-2.266C72.376,1.9,74.427,1.39,76.186.2c.612-.414,1.132.207,1.434.832q3.491,7.238,7,14.466a3.386,3.386,0,0,0,.378.511Zm-6.5,1.2a15.957,15.957,0,0,0,3.913-2.141c.494-.469-.657-1.7-1.032-2.605-.072-.173-.157-.34-.239-.509C79.6,9.466,78.04,6.3,76.518,3.114c-.3-.636-.587-.833-1.264-.447-1.008.575-2.078,1.042-3.117,1.566-.321.162-.632.224-.343.8,2.074,4.12,4.085,8.271,6.114,12.413.108.22.112.535.593.452" transform="translate(-33.829 -0.05)" fill="#00823b"/>
    <path id="Path_114" data-name="Path 114" d="M0,16.413a47.632,47.632,0,0,0,1.859-5.107C2.8,8.422,3.8,5.56,4.788,2.692a10.833,10.833,0,0,0,.64-1.74C5.606-.2,6.306-.093,7.064.171Q10.642,1.417,14.2,2.724a3.045,3.045,0,0,0,2.66-.1,6.327,6.327,0,0,1,5.448-.331C26.243,3.7,30.2,5.057,34.166,6.385a1.083,1.083,0,0,1,.848,1.346C34.575,10.7,32.76,12.03,29.7,11.2A29.975,29.975,0,0,1,26.049,10a1.127,1.127,0,0,0-1.7.611,7.8,7.8,0,0,1-4.415,3.89,8.685,8.685,0,0,1-5.871-.373c-.584-.21-.5-.768-.372-1.159s.442-.816,1.033-.565a8.173,8.173,0,0,0,2.571.592c2.711.211,5.032-1.678,6.086-4.549.338-.92.663-1.045,1.514-.735,1.758.641,3.548,1.195,5.331,1.766,1.366.438,2.318.125,2.655-.839.169-.483.149-.73-.482-.937-3.719-1.223-7.41-2.529-11.112-3.806a3.674,3.674,0,0,0-3,.2,5.03,5.03,0,0,1-3.955.527c-.551-.183-.957-.006-1.205.754-1.436,4.389-2.982,8.743-4.481,13.112-.6,1.745-.781,1.855-2.439,1.27-2.07-.73-4.136-1.47-6.2-2.205V16.413m6.092,1.262c.64.139.848-.03,1-.486,1.423-4.27,2.859-8.536,4.34-12.786.187-.537-.022-.7-.4-.836-1.2-.429-2.409-.815-3.6-1.255-.359-.132-.475-.133-.615.284C5.343,7,3.833,11.4,2.333,15.8c-.1.285-.207.57.214.707,1.245.405,2.489.818,3.546,1.166" transform="translate(0 0)" fill="#00823b"/>
  </g>
</svg>
