<svg xmlns="http://www.w3.org/2000/svg" width="25.793" height="20.482" viewBox="0 0 25.793 27.482">
  <path id="Path_90" data-name="Path 90" d="M83.722,42.838a1.679,1.679,0,0,1-1.2-.582q-1.14-1.148-2.284-2.288-1.747-1.745-3.483-3.5a1.492,1.492,0,0,0-1.073-.511,1.783,1.783,0,0,0-.756.192,10.616,10.616,0,0,1-4.524,1.01A10.9,10.9,0,0,1,68.686,15.5a10.341,10.341,0,0,1,1.706-.142A10.938,10.938,0,0,1,81.161,24.8a13.337,13.337,0,0,1,.092,1.484A10.575,10.575,0,0,1,79.068,32.8a1.2,1.2,0,0,0,.134,1.752q2.8,2.76,5.564,5.557a1.7,1.7,0,0,1,.495,1.558,1.462,1.462,0,0,1-.948,1.06,1.714,1.714,0,0,1-.59.113m-13.3-25.275A8.705,8.705,0,0,0,64.182,32.4a8.705,8.705,0,1,0,6.266-14.833Z" transform="translate(-59.503 -15.356)" fill="#00823b"/>
</svg>
