<svg xmlns="http://www.w3.org/2000/svg" width="27" height="27.483" viewBox="0 0 27 27.483">
  <g id="Group_920" data-name="Group 920" transform="translate(-800.957 -479.271)">
    <path id="Path_88" data-name="Path 88" d="M93.442,194.025c-3.24,0-6.482-.09-9.718.029-2.558.094-4.178-1.322-3.739-4.307a8.276,8.276,0,0,1,8-7.063c3.634-.045,7.27-.053,10.9,0a8.221,8.221,0,0,1,8.02,8.047,2.988,2.988,0,0,1-3.2,3.289c-3.424.014-6.848,0-10.272,0" transform="translate(721.043 312.696)" fill="#00823b"/>
    <path id="Path_89" data-name="Path 89" d="M134.385,88.146a7.164,7.164,0,1,1-7.157-7.18,7.168,7.168,0,0,1,7.157,7.18" transform="translate(687.245 398.305)" fill="#00823b"/>
  </g>
</svg>
