<svg id="Group_747" data-name="Group 747" xmlns="http://www.w3.org/2000/svg" xmlns:xlink="http://www.w3.org/1999/xlink" width="20.425" height="20.945" viewBox="0 0 23.425 25.945">
  <defs>
    <clipPath id="clip-path">
      <rect id="Rectangle_855" data-name="Rectangle 855" width="23.425" height="25.945" fill="none"/>
    </clipPath>
  </defs>
  <g id="Group_746" data-name="Group 746" clip-path="url(#clip-path)">
    <path id="Path_91" data-name="Path 91" d="M20.872,9.284a8.942,8.942,0,0,1-3.376,7.1c-.656.542-.613.783.115,1.151a11.347,11.347,0,0,1,5.535,6.236,3.858,3.858,0,0,1,.274,1.047.952.952,0,0,1-.785,1.1.905.905,0,0,1-1.112-.6A11.446,11.446,0,0,0,19.5,22.033,10.458,10.458,0,0,0,2.25,24.65c-.085.179-.149.37-.247.541A1.035,1.035,0,0,1,.576,25.7.944.944,0,0,1,.1,24.367a11.806,11.806,0,0,1,5.264-6.6c1.2-.7,1.206-.687.155-1.616A9.337,9.337,0,0,1,3.488,4.9,9.205,9.205,0,0,1,14,.3a9.085,9.085,0,0,1,6.869,8.989M11.7,16.007a6.881,6.881,0,0,0,6.81-6.843A6.982,6.982,0,0,0,11.685,2.4,6.992,6.992,0,0,0,4.8,9.208a7.021,7.021,0,0,0,6.9,6.8" transform="translate(0 -0.001)"/>
  </g>
</svg>
