<svg xmlns="http://www.w3.org/2000/svg" width="45.545" height="45.545" viewBox="0 0 45.545 45.545">
  <path id="Icon_simple-wheniwork" data-name="Icon simple-wheniwork" d="M22.772,45.545A22.772,22.772,0,1,1,45.545,22.772,22.79,22.79,0,0,1,22.772,45.545Zm0-41.723a18.952,18.952,0,1,0,18.952,18.95A19,19,0,0,0,22.772,3.822ZM33.94,24.978H17.484a1.323,1.323,0,0,1-1.325-1.311v-1.92a1.319,1.319,0,0,1,1.325-1.323h16.6a1.319,1.319,0,0,1,1.323,1.323v1.909a1.562,1.562,0,0,1-1.467,1.323Zm-4.262-7.346h-16.6a1.317,1.317,0,0,1-1.325-1.311V14.4a1.3,1.3,0,0,1,1.323-1.178h16.6A1.267,1.267,0,0,1,30.853,14.4v1.909a1.3,1.3,0,0,1-1.175,1.323Zm-16.6,10.282h16.6A1.316,1.316,0,0,1,31,29.236v1.909a1.319,1.319,0,0,1-1.311,1.323H13.077A1.558,1.558,0,0,1,11.754,31V29.092a1.3,1.3,0,0,1,1.323-1.178Z" fill="#00823b"/>
</svg>
