<svg xmlns="http://www.w3.org/2000/svg" width="42.286" height="37" viewBox="0 0 42.286 37">
  <path id="Icon_awesome-quote-left" data-name="Icon awesome-quote-left" d="M38.321,20.75H31.714V15.464A5.291,5.291,0,0,1,37,10.179h.661A1.977,1.977,0,0,0,39.643,8.2V4.232A1.977,1.977,0,0,0,37.661,2.25H37A13.211,13.211,0,0,0,23.786,15.464V35.286A3.965,3.965,0,0,0,27.75,39.25H38.321a3.965,3.965,0,0,0,3.964-3.964V24.714A3.965,3.965,0,0,0,38.321,20.75Zm-23.786,0H7.929V15.464a5.291,5.291,0,0,1,5.286-5.286h.661A1.977,1.977,0,0,0,15.857,8.2V4.232A1.977,1.977,0,0,0,13.875,2.25h-.661A13.211,13.211,0,0,0,0,15.464V35.286A3.965,3.965,0,0,0,3.964,39.25H14.536A3.965,3.965,0,0,0,18.5,35.286V24.714A3.965,3.965,0,0,0,14.536,20.75Z" transform="translate(0 -2.25)" fill="#d8d8d8"/>
</svg>
